{"title":"Divergent.2014.Bluray.1080p.DTS.X264.H3LL2P4Y","uid":10800755,"size":11337894197,"categoryP":"video","categoryS":"hd___movies","magnet":"?xt=urn:btih:b55b507c2abe46c589fe955508445c2db37f666e&amp;dn=Divergent.2014.Bluray.1080p.DTS.X264.H3LL2P4Y&amp;tr=udp%3A%2F%2Ftracker.openbittorrent.com%3A80&amp;tr=udp%3A%2F%2Fopen.demonii.com%3A1337&amp;tr=udp%3A%2F%2Ftracker.coppersurfer.tk%3A6969&amp;tr=udp%3A%2F%2Fexodus.desync.com%3A6969","seeders":3,"leechers":0,"uploader":"inovai","files":3,"time":1408345913,"description":"Cover:\n &lt;a href=&quot;\nhttp://forum.primetimeshow.in/viewtopic.php?f=7&amp;t=415&quot; rel=&quot;nofollow&quot; target=&quot;_NEW&quot;&gt;\nhttp://forum.primetimeshow.in/viewtopic.php?f=7&amp;t=415&lt;/a&gt;\n\nPlot\nIn a world divided by factions based on virtues, Tris learns she's Divergent and won't fit in. When she discovers a plot to destroy Divergents, Tris and the mysterious Four must find out what makes Divergents dangerous before it's too\n\nlate.\n\nSource\nDivergent 2014 1080p Blu-ray AVC DTS-HD MA 7.1-HDW;)\n\nGeneral\nComplete name :Divergent.2014.Bluray.1080p.DTS.X264.H3LL2P4Y.mkv\nFormat : Matroska\nFormat version : Version 4 / Version 2\nFile size : 14.1 GiB\nDuration : 2h 19mn\nOverall bit rate : 14.5 Mbps\nEncoded date : UTC 2014-07-27 12:50:37\nDURATION : 02:19:40.416000000\nNUMBER_OF_FRAMES : 785664\nNUMBER_OF_BYTES : 1580755968\n\n\nVideo\nID : 1\nFormat : AVC\nFormat/Info : Advanced Video Codec\nFormat profile : &lt;a class=&quot;__cf_email__&quot; href=&quot;/cdn-cgi/l/email-protection&quot; data-cfemail=&quot;4d05242a250d0179637c&quot;&gt;[email&amp;#160;protected]&lt;/a&gt;&lt;script cf-hash='f9e31' type=&quot;text/javascript&quot;&gt;\n/* &lt;![CDATA[ */!function(){try{var t=&quot;currentScript&quot;in document?document.currentScript:function(){for(var t=document.getElementsByTagName(&quot;script&quot;),e=t.length;e--;)if(t[e].getAttribute(&quot;cf-hash&quot;))return t[e]}();if(t&amp;&amp;t.previousSibling){var e,r,n,i,c=t.previousSibling,a=c.getAttribute(&quot;data-cfemail&quot;);if(a){for(e=&quot;&quot;,r=parseInt(a.substr(0,2),16),n=2;a.length-n;n+=2)i=parseInt(a.substr(n,2),16)^r,e+=String.fromCharCode(i);e=document.createTextNode(e),c.parentNode.replaceChild(e,c)}}}catch(u){}}();/* ]]&gt; */&lt;/script&gt;\nFormat settings, CABAC : Yes\nFormat settings, ReFrames : 5 frames\nCodec ID : V_MPEG4/ISO/AVC\nDuration : 2h 19mn\nBit rate : 13.0 Mbps\nWidth : 1 920 pixels\nHeight : 800 pixels\nDisplay aspect ratio : 2.40:1\nFrame rate mode : Constant\nFrame rate : 23.976 fps\nColor space : YUV\nChroma subsampling : 4:2:0\nBit depth : 8 bits\nScan type : Progressive\nBits/(Pixel*Frame) : 0.353\nStream size : 12.4 GiB (88%)\nWriting library : x264 core 142 r2431 ac76440\nLanguage : English\nDefault : Yes\nForced : No\n\nAudio\nID : 2\nFormat : DTS\nFormat/Info : Digital Theater Systems\nMode : 16\nFormat settings, Endianness : Big\nCodec ID : A_DTS\nDuration : 2h 19mn\nBit rate mode : Constant\nBit rate : 1 509 Kbps\nChannel(s) : 6 channels\nChannel positions : Front: L C R, Side: L R, LFE\nSampling rate : 48.0 KHz\nBit depth : 24 bits\nCompression mode : Lossy\nStream size : 1.47 GiB (10%)\nDefault : Yes\nForced : No\n\nTHanks to H3LL2P4Y\n\nSharing is Caring!!\n\nSeed Please after download!!","torrent":{"xt":"urn:btih:b55b507c2abe46c589fe955508445c2db37f666e","amp;dn":"Divergent.2014.Bluray.1080p.DTS.X264.H3LL2P4Y","amp;tr":["udp%3A%2F%2Ftracker.openbittorrent.com%3A80","udp%3A%2F%2Fopen.demonii.com%3A1337","udp%3A%2F%2Ftracker.coppersurfer.tk%3A6969","udp%3A%2F%2Fexodus.desync.com%3A6969"],"infoHash":"b55b507c2abe46c589fe955508445c2db37f666e","infoHashBuffer":{"type":"Buffer","data":[181,91,80,124,42,190,70,197,137,254,149,85,8,68,92,45,179,127,102,110]},"announce":[],"urlList":[]}}